<svg xmlns="http://www.w3.org/2000/svg" viewBox="0 0 96 30" fill="none">
    <path fill-rule="evenodd" clip-rule="evenodd"
          d="M70.349 17.486c-2.084 0-3.774-1.787-3.774-3.992 0-2.204 1.69-3.991 3.774-3.991s3.773 1.787 3.773 3.991c0 2.205-1.69 3.992-3.773 3.992zm0-11.895a7.903 7.903 0 100 15.807 7.903 7.903 0 000-15.807zM87.575 17.486c-2.084 0-3.773-1.787-3.773-3.992 0-2.204 1.69-3.991 3.773-3.991 2.084 0 3.774 1.787 3.774 3.991 0 2.205-1.69 3.992-3.774 3.992zm0-11.895a7.903 7.903 0 100 15.807 7.903 7.903 0 000-15.807zM18.749 20.62h4.13V6.523h-4.13V20.62zM20.814 0c-1.404 0-2.395.963-2.395 2.312 0 1.377.99 2.34 2.395 2.34 1.404 0 2.395-.963 2.395-2.34C23.209.963 22.218 0 20.814 0zM44.822 20.62h4.13V6.523h-4.13V20.62zM46.887 0c-1.404 0-2.395.963-2.395 2.312 0 1.377.991 2.34 2.395 2.34s2.395-.963 2.395-2.34C49.282.963 48.292 0 46.887 0zM57.589 15.637V9.663h3.193V6.524h-3.193V2.973h-3.924l-.013 3.551h-2.175v3.139h1.982v6.386c0 3.001 1.817 5.12 4.625 5.12.88 0 1.982-.165 2.835-.44v-3.33a5.904 5.904 0 01-1.459.22c-1.156 0-1.871-.799-1.871-1.982zM33.282 17.486c-2.084 0-3.773-1.787-3.773-3.992 0-2.204 1.689-3.991 3.773-3.991s3.774 1.787 3.774 3.991c0 2.205-1.69 3.992-3.774 3.992zm5.27-9.88a7.903 7.903 0 10-1.476 12.82v1.749h-.004a3.536 3.536 0 01-3.493 3.52v-.006h-.126A3.533 3.533 0 0130 22.175h-.003v-.132h-4.253a7.731 7.731 0 007.731 7.73v-.006h.002v.007c4.181 0 7.578-3.322 7.718-7.47h.013V6.626c-1.014 0-1.94.37-2.654.98zM7.903 17.486c-2.084 0-3.773-1.787-3.773-3.992 0-2.204 1.689-3.992 3.773-3.992s3.774 1.787 3.774 3.992-1.69 3.992-3.774 3.992zM15.806.192h-4.13v6.357a7.903 7.903 0 104.128 7.023h.002V.192z"
          fill="#0065EF"/>
</svg>
