<svg width="486" height="125" viewBox="0 0 486 125" fill="none" xmlns="http://www.w3.org/2000/svg">
<path d="M40.552 74.3919C43.624 74.3919 46.264 75.4959 48.472 77.7039C50.68 79.9119 51.784 82.5519 51.784 85.6239C51.784 88.7919 50.68 91.4799 48.472 93.6879C46.264 95.8959 43.624 96.9999 40.552 96.9999C32.392 96.9999 25.336 94.1199 19.384 88.3599C13.528 82.3119 10.6 75.2079 10.6 67.0479V66.1839V65.3199V13.3359C10.6 10.2639 11.704 7.62389 13.912 5.41589C16.12 3.20789 18.808 2.10389 21.976 2.10389C25.048 2.10389 27.688 3.20789 29.896 5.41589C32.104 7.62389 33.208 10.2639 33.208 13.3359V24.9999H41.848C44.632 24.9999 46.984 26.0079 48.904 28.0239C50.824 29.9439 51.784 32.2959 51.784 35.0799C51.784 37.7679 50.776 40.1199 48.76 42.1359C46.84 44.0559 44.536 45.0159 41.848 45.0159H33.208V65.3199V66.1839V67.0479C33.208 69.0639 33.928 70.7919 35.368 72.2319C36.808 73.6719 38.536 74.3919 40.552 74.3919ZM157.039 25.8639C159.919 27.0159 161.983 29.0319 163.231 31.9119C164.479 34.7919 164.479 37.6719 163.231 40.5519L143.071 89.7999C141.247 94.3119 137.935 96.6639 133.135 96.8559C132.847 96.9519 132.415 96.9999 131.839 96.9999C127.327 96.9999 124.207 94.9359 122.479 90.8079V90.6639C122.383 90.4719 122.239 90.1839 122.047 89.7999C121.951 89.4159 121.855 89.1279 121.759 88.9359L111.535 63.8799L101.311 88.9359C101.215 89.1279 101.071 89.4159 100.879 89.7999C100.783 90.1839 100.687 90.4719 100.591 90.6639V90.8079C98.863 94.9359 95.743 96.9999 91.231 96.9999C90.655 96.9999 90.223 96.9519 89.935 96.8559C85.135 96.6639 81.823 94.3119 79.999 89.7999L59.839 40.5519C58.591 37.6719 58.591 34.7919 59.839 31.9119C61.087 29.0319 63.151 27.0159 66.031 25.8639C68.911 24.6159 71.791 24.6159 74.671 25.8639C77.551 27.0159 79.567 29.0799 80.719 32.0559L91.951 59.1279L102.175 33.9279C103.903 29.7999 107.023 27.7359 111.535 27.7359C116.047 27.7359 119.167 29.7999 120.895 33.9279L131.119 59.1279L142.351 32.0559C143.503 29.0799 145.519 27.0159 148.399 25.8639C151.279 24.6159 154.159 24.6159 157.039 25.8639ZM195.885 10.3119C195.885 7.52789 194.877 5.12789 192.861 3.11189C190.845 1.09589 188.397 0.0878906 185.517 0.0878906C182.637 0.0878906 180.141 1.09589 178.029 3.11189C176.013 5.12789 175.005 7.52789 175.005 10.3119C175.005 13.1919 176.013 15.6399 178.029 17.6559C180.141 19.6719 182.637 20.6799 185.517 20.6799C188.397 20.6799 190.845 19.6719 192.861 17.6559C194.877 15.6399 195.885 13.1919 195.885 10.3119ZM185.517 96.9999C188.589 96.9999 191.229 95.8959 193.437 93.6879C195.645 91.3839 196.749 88.6959 196.749 85.6239V36.3759C196.749 33.3039 195.645 30.6639 193.437 28.4559C191.229 26.1519 188.589 24.9999 185.517 24.9999C182.349 24.9999 179.661 26.1519 177.453 28.4559C175.245 30.6639 174.141 33.3039 174.141 36.3759V85.6239C174.141 88.6959 175.245 91.3839 177.453 93.6879C179.661 95.8959 182.349 96.9999 185.517 96.9999ZM269.479 25.1439C272.167 25.1439 274.471 26.1519 276.391 28.1679C278.311 30.0879 279.271 32.3919 279.271 35.0799V87.0639V88.2159C279.271 98.3919 275.959 106.792 269.335 113.416C262.039 120.52 253.303 124.072 243.127 124.072C238.807 124.072 234.487 123.256 230.167 121.624C227.575 120.664 225.751 118.888 224.695 116.296C223.639 113.8 223.639 111.256 224.695 108.664C225.751 106.168 227.527 104.392 230.023 103.336C232.519 102.28 235.063 102.232 237.655 103.192C239.287 103.864 241.111 104.2 243.127 104.2C247.927 104.2 251.959 102.568 255.223 99.3039C256.855 97.4799 258.007 95.5599 258.679 93.5439C253.783 95.8479 248.695 96.9999 243.415 96.9999C233.431 96.9999 224.935 93.4959 217.927 86.4879C211.015 79.3839 207.559 70.8399 207.559 60.8559C207.559 50.9679 211.015 42.5199 217.927 35.5119C224.935 28.5039 233.431 24.9999 243.415 24.9999C249.751 24.9999 255.655 26.5839 261.127 29.7519C262.951 26.6799 265.735 25.1439 269.479 25.1439ZM252.919 70.5039C255.511 67.7199 256.807 64.5039 256.807 60.8559C256.807 57.3039 255.511 54.2319 252.919 51.6399C250.231 48.9519 247.063 47.6079 243.415 47.6079C239.575 47.6079 236.407 48.9519 233.911 51.6399C231.319 54.0399 230.023 57.1119 230.023 60.8559C230.023 64.6959 231.319 67.9119 233.911 70.5039C236.407 72.9999 239.575 74.2479 243.415 74.2479C247.063 74.2479 250.231 72.9999 252.919 70.5039Z" fill="#003165"/>
<path d="M308.499 97.0003H309.795C316.227 96.4243 321.555 93.9283 325.779 89.5123C330.387 84.8083 332.595 79.1443 332.403 72.5203C332.115 66.6643 330.051 61.6723 326.211 57.5443C325.539 56.8723 324.627 56.0563 323.475 55.0963C321.363 53.4643 319.011 52.1683 316.419 51.2083C316.131 51.1123 315.411 50.9683 314.259 50.7763C313.203 50.4883 312.387 50.2483 311.811 50.0563C309.315 49.3843 308.259 48.1843 308.643 46.4563C308.931 45.3043 309.699 44.6323 310.947 44.4403C312.195 44.2483 313.251 44.4403 314.115 45.0163C316.515 46.3603 319.011 46.6963 321.603 46.0243C324.291 45.3523 326.307 43.8163 327.651 41.4163C329.091 39.0163 329.427 36.5203 328.659 33.9283C327.987 31.2403 326.451 29.2243 324.051 27.8803C319.923 25.4803 315.123 24.4243 309.651 24.7123C303.603 25.1923 298.515 27.6403 294.387 32.0563C290.067 36.6643 288.051 42.0403 288.339 48.1843C288.531 53.7523 290.931 58.6963 295.539 63.0163C297.363 64.7443 299.571 66.2803 302.163 67.6243C303.795 68.3923 305.427 68.9683 307.059 69.3523C307.251 69.4483 307.539 69.5443 307.923 69.6403C308.403 69.7363 308.739 69.8323 308.931 69.9283C309.219 69.9283 309.555 70.0243 309.939 70.2163C310.323 70.3123 310.611 70.4563 310.803 70.6483C310.995 70.7443 311.187 70.8883 311.379 71.0803C311.667 71.2723 311.859 71.5123 311.955 71.8003C312.147 72.0883 312.291 72.4243 312.387 72.8083C312.579 73.8643 312.291 74.7763 311.523 75.5443C310.179 77.1763 308.067 77.5603 305.187 76.6963C304.419 76.5043 303.363 76.0243 302.019 75.2563C299.811 74.2003 297.507 74.0563 295.107 74.8243C292.707 75.4963 290.835 76.8403 289.491 78.8563C287.955 81.1603 287.475 83.6563 288.051 86.3443C288.627 88.9363 290.067 91.0003 292.371 92.5363C297.267 95.7043 302.643 97.1923 308.499 97.0003ZM395.998 67.4803H395.422H359.278C360.142 69.5923 361.294 71.2723 362.734 72.5203C365.998 75.5923 370.078 77.1283 374.974 77.1283C379.486 77.1283 383.374 75.9763 386.638 73.6723C388.846 72.1363 391.198 71.6563 393.694 72.2323C396.286 72.7123 398.398 74.0563 400.03 76.2643C401.47 78.4723 401.902 80.9683 401.326 83.7523C400.846 86.4403 399.55 88.5523 397.438 90.0883C391.006 94.6963 383.518 97.0003 374.974 97.0003C364.894 97.0003 356.35 93.6403 349.342 86.9203C345.982 83.5603 343.486 79.8163 341.854 75.6883C339.838 71.4643 338.83 66.8563 338.83 61.8643V61.2883V60.7123C338.83 56.0083 339.79 51.3523 341.71 46.7443C343.534 42.5203 345.982 38.7283 349.054 35.3683C352.414 32.0083 356.11 29.4163 360.142 27.5923C364.174 25.8643 368.734 25.0003 373.822 25.0003C382.846 25.0003 390.382 27.5923 396.43 32.7763C403.342 38.5363 407.326 45.8803 408.382 54.8083C408.766 57.8803 407.998 60.6643 406.078 63.1603C404.254 65.6563 401.806 67.0963 398.734 67.4803C398.638 67.4803 398.398 67.5283 398.014 67.6243C397.726 67.6243 397.486 67.6243 397.294 67.6243C397.102 67.6243 396.862 67.6243 396.574 67.6243C396.286 67.5283 396.094 67.4803 395.998 67.4803ZM384.19 51.6403H384.046H387.358C386.686 49.0483 385.054 46.9363 382.462 45.3043C379.966 43.5763 377.086 42.7123 373.822 42.7123C370.462 42.7123 367.486 43.5763 364.894 45.3043C362.398 46.9363 360.766 49.0483 359.998 51.6403H364.318H384.19ZM472.954 67.4803H472.378H436.234C437.098 69.5923 438.25 71.2723 439.69 72.5203C442.954 75.5923 447.034 77.1283 451.93 77.1283C456.442 77.1283 460.33 75.9763 463.594 73.6723C465.802 72.1363 468.154 71.6563 470.65 72.2323C473.242 72.7123 475.354 74.0563 476.986 76.2643C478.426 78.4723 478.858 80.9683 478.282 83.7523C477.802 86.4403 476.506 88.5523 474.394 90.0883C467.962 94.6963 460.474 97.0003 451.93 97.0003C441.85 97.0003 433.306 93.6403 426.298 86.9203C422.938 83.5603 420.442 79.8163 418.81 75.6883C416.794 71.4643 415.786 66.8563 415.786 61.8643V61.2883V60.7123C415.786 56.0083 416.746 51.3523 418.666 46.7443C420.49 42.5203 422.938 38.7283 426.01 35.3683C429.37 32.0083 433.066 29.4163 437.098 27.5923C441.13 25.8643 445.69 25.0003 450.778 25.0003C459.802 25.0003 467.338 27.5923 473.386 32.7763C480.298 38.5363 484.282 45.8803 485.338 54.8083C485.722 57.8803 484.954 60.6643 483.034 63.1603C481.21 65.6563 478.762 67.0963 475.69 67.4803C475.594 67.4803 475.354 67.5283 474.97 67.6243C474.682 67.6243 474.442 67.6243 474.25 67.6243C474.058 67.6243 473.818 67.6243 473.53 67.6243C473.242 67.5283 473.05 67.4803 472.954 67.4803ZM461.146 51.6403H461.002H464.314C463.642 49.0483 462.01 46.9363 459.418 45.3043C456.922 43.5763 454.042 42.7123 450.778 42.7123C447.418 42.7123 444.442 43.5763 441.85 45.3043C439.354 46.9363 437.722 49.0483 436.954 51.6403H441.274H461.146Z" fill="#0085FF"/>
<path d="M40.5 24H11.5C5.14873 24 0 29.1487 0 35.5C0 41.8513 5.14873 47 11.5 47H40.5C46.8513 47 52 41.8513 52 35.5C52 29.1487 46.8513 24 40.5 24Z" fill="#003165"/>
</svg>
