<svg xmlns="http://www.w3.org/2000/svg" xmlns:xlink="http://www.w3.org/1999/xlink" viewBox="0 0 745.46 571.47">
    <defs>
        <style>
            .cls-1{fill:none;}.cls-2{clip-path:url(#clip-path);}.cls-3{fill:url(#Nepojmenovaný_přechod_57);}.cls-4{fill:#fff;}
        </style>
        <clipPath id="clip-path">
            <path class="cls-1"
                  d="M146.08,214.22c-1.53,103.42,240.53,267.59,335.26,207.14S603.26,205.2,554.7,159.65c-20.76-19.46-98.08-32.6-180-32.6-109.75,0-227.71,23.6-228.65,87.17"/>
        </clipPath>
        <linearGradient id="Nepojmenovaný_přechod_57" x1="452.68" y1="380.18" x2="154.68" y2="28.18"
                        gradientUnits="userSpaceOnUse">
            <stop offset="0" stop-color="#2d2e83"/>
            <stop offset="0.4" stop-color="#951b81"/>
            <stop offset="0.72" stop-color="#e71d73"/>
            <stop offset="1" stop-color="#e94e1b"/>
        </linearGradient>
    </defs>
    <title>logo_color</title>
    <g id="Layer_2" data-name="Layer 2">
        <g id="Vrstva_1" data-name="Vrstva 1">
            <g class="cls-2">
                <rect class="cls-3" width="745.46" height="571.47"/>
            </g>
        </g>
        <g id="Isolation_Mode" data-name="Isolation Mode">
            <path class="cls-4"
                  d="M342.85,293.71c-15.71,0-26.58,10.47-26.58,26.58v48.44h12V337.82h.2c3.23,5,9.17,8.25,16.62,8.25,11.88,0,24.57-8.56,24.57-26.18C369.64,304.78,358.56,293.71,342.85,293.71Zm0,41.18c-8.76,0-14.6-6.24-14.6-15s5.84-15,14.6-15,14.7,6.24,14.7,15S351.61,334.89,342.85,334.89Z"/>
            <rect class="cls-4" x="379.21" y="270.55" width="11.98" height="74.22"/>
            <path class="cls-4"
                  d="M439.93,320.9c0,9.46-5,14-12.59,14s-12.58-4.53-12.58-14V295h-12V320.9c0,16.71,9.87,25.17,24.57,25.17s24.58-8.56,24.58-25.17V295h-12Z"/>
            <path class="cls-4"
                  d="M473,309.92c0-3.32,2.62-5.74,8-5.74,4.63,0,7.45,2.12,7.75,5.14h11.89c-.31-8.76-7.76-15.61-19.84-15.61s-19.84,6.85-19.84,16.21c0,20.95,28.7,11.08,28.7,19.84,0,3.42-2.62,5.84-9,5.84-5.64,0-8.56-2.21-8.66-5.54H459.87c.31,9.27,8.26,16,20.95,16s20.84-6.84,20.84-16.31C501.66,309.32,473,318.68,473,309.92Z"/>
            <path class="cls-4"
                  d="M233.64,211.62c-7.45,0-13.4,3.22-16.62,8.25h-.2V188.46h-12V237.4c0,16.11,10.87,26.58,26.58,26.58s26.79-11.08,26.79-26.18C258.21,220.18,245.52,211.62,233.64,211.62Zm-2.22,41.18c-8.76,0-14.6-6.24-14.6-15s5.84-15,14.6-15,14.7,6.25,14.7,15S240.18,252.8,231.42,252.8Z"/>
            <path class="cls-4"
                  d="M290.84,211.62c-15.71,0-26.79,11.07-26.79,26.18S275.13,264,290.84,264c11.78,0,20.84-6.14,24.57-15.61H302.62c-2.52,3.23-6.45,4.74-11.78,4.74-7.45,0-12.59-4.23-14.2-10.88V242h40.78V237.8C317.42,222.69,306.55,211.62,290.84,211.62Zm13.89,20.84H276.94v-.2c1.91-6,6.85-9.77,13.9-9.77s12,3.73,13.89,9.77Z"/>
            <path class="cls-4"
                  d="M349.85,211.62c-14.7,0-24.57,8.56-24.57,25.17v25.88h12V236.79c0-9.46,5-14,12.59-14s12.59,4.54,12.59,14v25.88h12V236.79C374.42,220.08,364.55,211.62,349.85,211.62Z"/>
            <path class="cls-4"
                  d="M409.07,211.62c-15.71,0-26.79,11.07-26.79,26.18S393.36,264,409.07,264c11.78,0,20.84-6.14,24.57-15.61H420.85c-2.52,3.23-6.45,4.74-11.78,4.74-7.46,0-12.59-4.23-14.2-10.88V242h40.78V237.8C435.65,222.69,424.78,211.62,409.07,211.62ZM423,232.46H395.17v-.2c1.91-6,6.85-9.77,13.9-9.77s12,3.73,13.89,9.77Z"/>
            <path class="cls-4"
                  d="M535.48,243.54c0,6.75-3.42,9.26-8.36,9.26s-8.35-2.61-8.35-9.26V223.8h25.68V212.93H518.77V197.67h-12v45.87c0,13.8,8.26,20.44,20.34,20.44s20.35-6.64,20.35-20.44v-1.31h-12Z"/>
            <path class="cls-4"
                  d="M492.81,212.94H459.69v-4.15c0-8.06,4.23-11.63,10.47-11.63,4.55,0,8,1.88,9.57,6h12.42c-2-11.49-10.36-17.2-22-17.2-13.39,0-22.45,7.6-22.45,22.81v4.15h-8.18v10.91h8.18v38.82h12V223.85h21.13v38.82h12Z"/>
        </g>
    </g>
</svg>