<?xml version="1.0" encoding="UTF-8"?>
<svg width="733px" height="670px" viewBox="0 0 733 670" version="1.1" xmlns="http://www.w3.org/2000/svg"
>
    <!-- Generator: Sketch 51 (57462) - http://www.bohemiancoding.com/sketch -->
    <title>Combined Shape</title>
    <desc>Created with Sketch.</desc>
    <defs>
        <linearGradient x1="0%" y1="0%" x2="100%" y2="100%" id="linearGradient-1">
            <stop stop-color="#FFB117" offset="0%"></stop>
            <stop stop-color="#FC3C81" offset="100%"></stop>
        </linearGradient>
    </defs>
    <g id="Page-1" stroke="none" stroke-width="1" fill="none" fill-rule="evenodd">
        <g id="emu_1" transform="translate(-144.000000, -169.000000)">
            <g id="EMU1" transform="translate(144.000000, 169.000000)" fill="url(#linearGradient-1)">
                <path
                    d="M534.113798,549.087256 C486.378913,595.388749 421.872624,624.49728 350.583786,626.423992 C344.033262,626.829186 337.224754,626.764386 330.158248,626.229591 C326.188493,626.046361 322.240753,625.778803 318.316778,625.428667 C265.151699,622.311589 223.029363,626.491301 191.949763,637.967803 C163.269758,651.835596 124.619837,662.199727 76,669.060194 C76.4508042,668.737793 76.9025288,668.415632 77.3550583,668.093564 C77.2123538,668.159163 77.0695208,668.22481 76.9265595,668.290505 C126.033623,609.906499 136.578897,552.085196 108.562382,494.826594 C83.1768267,453.228378 68.550278,404.346406 68.550278,352.048221 C68.550278,336.660868 69.8164609,321.569248 72.2503199,306.871868 C72.9407114,286.255475 69.9526925,268.230691 63.286263,252.797513 L0,137.990845 L86.5100246,151.634742 L8.14956007,0 L392.460189,82.0098248 C512.300561,103.80495 605.011577,203.415307 616.34065,326.588301 L732.138245,441.134675 L567.109328,521.651077 C556.82332,527.855538 545.82481,537.130846 534.113798,549.477001 C534.113798,549.346861 534.113798,549.216946 534.113798,549.087256 Z M343.69263,520.19077 C436.18815,520.19077 511.170584,445.208336 511.170584,352.712816 C511.170584,260.217297 436.18815,185.234863 343.69263,185.234863 C251.197111,185.234863 176.214677,260.217297 176.214677,352.712816 C176.214677,445.208336 251.197111,520.19077 343.69263,520.19077 Z M344.357225,457.718835 C286.731048,457.718835 240.015802,411.003588 240.015802,353.377411 C240.015802,295.751235 286.731048,249.035988 344.357225,249.035988 C401.983402,249.035988 448.698649,295.751235 448.698649,353.377411 C448.698649,411.003588 401.983402,457.718835 344.357225,457.718835 Z M372.632531,310.671113 C389.124628,321.809389 397.034345,336.852923 397.034345,357.197142 C397.034345,364.538056 402.985332,370.489043 410.326246,370.489043 C417.667161,370.489043 423.618147,364.538056 423.618147,357.197142 C423.618147,328.063834 411.358229,304.746628 387.511054,288.640949 C381.427592,284.532359 373.165301,286.133308 369.056711,292.21677 C364.94812,298.300232 366.549069,306.562522 372.632531,310.671113 Z"
                    id="Combined-Shape"></path>
            </g>
        </g>
    </g>
</svg>
