<svg xmlns="http://www.w3.org/2000/svg" width="96" height="96"
     viewBox="11.999998092651367 7.9875712394714355 72.00000762939453 72.29244232177734">
  <clipPath id="a">
    <path d="M12 44a36 36 0 1072 0 36 36 0 10-72 0"/>
  </clipPath>
  <path d="M12 44a36 36 0 1072 0 36 36 0 10-72 0" fill="#d65a31"/>
  <path fill="#fff" clip-path="url(#a)"
        d="M30.38 80.28q-1.29 0-2.05-.76-.75-.75-.75-2.05V43.49q.07-5.62 2.7-10.12 2.62-4.5 7.12-7.09t10.12-2.59q5.76 0 10.3 2.63 4.53 2.62 7.16 7.16t2.63 10.3q0 5.68-2.56 10.22-2.55 4.54-6.95 7.16-4.39 2.63-9.93 2.63-4.83 0-8.75-2.05t-6.3-5.44v21.17q0 1.3-.76 2.05-.75.76-1.98.76zm17.14-21.53q4.18 0 7.49-1.94 3.31-1.95 5.22-5.37 1.91-3.42 1.91-7.66 0-4.32-1.91-7.71-1.91-3.38-5.22-5.36-3.31-1.98-7.49-1.98-4.1 0-7.42 1.98-3.31 1.98-5.18 5.36-1.87 3.39-1.87 7.71 0 4.24 1.87 7.66t5.18 5.37q3.32 1.94 7.42 1.94z"/>
</svg>
