<?xml version="1.0" encoding="utf-8"?>
<!-- Generator: Adobe Illustrator 19.0.1, SVG Export Plug-In . SVG Version: 6.00 Build 0)  -->
<svg version="1.1" id="Color_Fill_1_1_" xmlns="http://www.w3.org/2000/svg" xmlns:xlink="http://www.w3.org/1999/xlink" x="0px"
	 y="0px" viewBox="0 0 195 96" style="enable-background:new 0 0 195 96;" xml:space="preserve">
<style type="text/css">
	.st0{fill:#006E54;}
</style>
<g id="Color_Fill_1">
	<g>
		<path class="st0" d="M12,76h21l-2-34l10,1c0,0,0.1-9.4,0-18c-22.1,2-40,0-40,0L0,43l13-1L12,76z M44,25c0,0,3.8,32.9,1,51
			c5.9,0,20,0,20,0s-2.1-34.3,0-51C49.1,25.1,44,25,44,25z M93,60l3,15c0,0,14.6,0.1,20,0c-6.9-16.7-8-50-8-50s-5.9,0.1-14,0
			c-4.3,12-11,23-11,23L70,27v30l11,21c0,0,8.8-16.1,10-18C92.1,58.1,93,60,93,60z M139,64c0,0-4.8,0-7,0c-1.5-0.5-2-7-2-7h10l1-13
			h-14v-6c0,0,2.2,0.1,14,0c0.3-4.6-2-13-2-13s-12.4,0-25,0c-2.7,25.6,8,52,8,52h15L139,64z M174,77l21-1l-29-51c0,0-7.4,0.2-18,0
			c1,34.2-7,51-7,51l18,1l4-9h8L174,77z M163,57V45h2l5,12H163z M13,81H1v14h7v-4h5c0,0,9-0.1,9-5C22,81.1,13,81,13,81z M12,88H8v-4
			h4c0,0,3,0.1,3,2C15,87.9,12,88,12,88z M34,89h10v-2H34v-3h13l-1-3H26v14h21l1-2H34V89z M73,89l-22-8v14h8v-7l21,7V81h-7V89z
			 M110,81H85l-1,3h14L83,95h27v-2H94l1-1L110,81z M113,95h8V81h-8V95z M146,81l-2-1h-2l2,1c0.2,1-2,1-2,1l-2-1c0,0-15-0.4-15,7
			s15,7,15,7h6c0,0,16.1,0.6,16-7S146,81,146,81z M146,93h-6c0,0-8,0.3-8-5c-0.1-5.4,8-5,8-5h6c0,0,9-0.4,9,5
			C155,93.3,146,93,146,93z M188,89l-22-8v14h7v-7l22,8V81h-7V89z M48,20.2l83.1-5.1c0,0,0,0,0,0L48,20.2z M25,21
			c1.8,0,3.9,0.1,6,0.3l14.3-0.9c2-0.9,3.8-1.9,4.7-2.4c1.6-1,19.3-13.9,27-14s8,0,8,0s2.2-0.8,21,6c1.7,0.7,16.5,3.5,25.2,5.1
			l24-1.5c-2.9-0.6-6.6-1.7-9.2-1.7c-3.3-0.1-6.8,1.1-10,1c-6-1-27.9-5.2-30-6C87.1,0.2,85,1,85,1s-0.3-0.1-8,0S51.6,14,50,15
			c-1.6,1-7.4,4-10,4c-2.6,0-10.1-1-15-1C3.5,18.1,3,23,3,23S3.5,21.1,25,21z M155.2,13.7l-24,1.5c2,0.4,3.7,0.7,4.8,0.9
			c3.2,0.1,6.7-1.1,10-1c3.6-0.1,9,1.1,12,1c3-0.1,8-3,8-3s-5,0.9-8,1C157.2,14,156.2,13.9,155.2,13.7z M40,22
			c1.3,0,3.4-0.7,5.3-1.6L31,21.3C34.7,21.6,38.4,22,40,22z M166,13l-10.8,0.7h0L166,13z M31,21.3L3,23L31,21.3
			C31,21.3,31,21.3,31,21.3z"/>
	</g>
</g>
</svg>
