<svg version="1" xmlns="http://www.w3.org/2000/svg" width="1797.333" height="1797.333" viewBox="0 0 1348.000000 1348.000000"><path d="M643.8.5c-.1.2-5 .6-10.8.9-14.7.8-27.5 2-27.5 2.6 0 0-2.5.3-5.5.5-3 .3-6.6.7-8 1-1.4.3-4.7.8-7.5 1.1-5.4.7-8 1.2-8 1.4 0 .2-.9.3-7.7 1.3-2 .3-5.4 1-7.5 1.6-2.1.5-5.1 1.2-6.8 1.5-1.6.3-8.2 1.9-14.5 3.6-6.3 1.7-13.1 3.5-15 4-1.9.5-5.9 1.8-8.7 2.9-2.9 1.1-5.3 1.7-5.3 1.4 0-.3-.7 0-1.5.7s-1.5.9-1.5.5-.6-.3-1.2.2c-.7.6-3.1 1.6-5.3 2.3-2.2.7-4.6 1.7-5.2 2.3-.7.5-1.3.7-1.3.4 0-.3-2.6.5-5.7 1.9-19.1 8.3-26.9 11.8-27.3 12.3-.3.3-4 2.4-8.3 4.6-13.2 6.7-25 13.8-28.4 16.8-1.3 1.1-2.3 1.7-2.3 1.3 0-.4-1.2.5-2.7 1.9-1.5 1.4-3.3 2.5-4 2.5-.6 0-1.3.4-1.5.8-.1.4-3.8 3.4-8.1 6.5-8.9 6.6-10.1 7.5-21.6 17.7-18.1 15.8-34.7 33.9-50.3 54.5-9 12-19.8 28-19.8 29.5 0 .5-.4 1-1 1-.5 0-1.2 1.1-1.6 2.5-.3 1.4-1 2.5-1.5 2.5s-.9.4-.9.9-2.2 4.7-5 9.4-5 9-5 9.6c0 .6-.4 1.1-1 1.1-.5 0-1 .8-1 1.7 0 1-.9 2.9-2 4.3s-2 3-2 3.6c0 .6-1.2 3.2-2.6 5.8-1.4 2.5-2.7 5.2-2.8 5.9-.2.6-1.3 3.4-2.6 6.2-5.6 12.5-7 15.6-7 16.1 0 .2-.7 2.1-1.6 4.2-1 2-1.8 4.1-1.9 4.7-.2.5-2.3 6.7-4.8 13.7-2.5 7-4.2 12.9-3.9 13.2.3.3.1.6-.5.6-.5 0-1 .6-1 1.2 0 .7-.8 3.9-1.7 7-1 3.2-1.8 6.1-1.8 6.5 0 .5-.5 1.9-1 3.3s-1.1 3.2-1.3 4l-2 8c-1.9 7.5-1.7 6.4-4.5 19.5-1.2 5.5-2.3 10.9-2.6 12-.2 1.1-.6 3.3-.9 5-.3 1.6-.7 4.1-1 5.5-.7 3.9-2.4 15.1-3.1 20.7-.2 1.8-.7 5-.9 7-.3 2.1-.8 6.3-1.1 9.3-.2 3-.8 6.8-1.1 8.5-.4 1.6-.9 203.9-1 449.5-.3 407.5-.2 447.1 1.3 452 2.4 8.2 7 16.3 12.5 22 2.7 2.7 5.2 5 5.5 5 .3 0 1.7.9 3 1.9 2.5 2 15.9 7.9 19.8 8.7 11.6 2.6 18.3 3.2 31.6 2.9 11.9-.3 21.5-1 21.5-1.5 0-.1 1.1-.3 2.5-.6 2.1-.3 7.4-2 13-4.1.8-.3 2.1-.7 2.9-.9.8-.1 1.7-.8 2.1-1.4.4-.7.9-1.1 1.1-.9 1.4.9 15.9-11 15.9-13.1 0-.5.4-1 1-1 1.1 0 5.5-8.2 7.7-14.4 1.4-4 1.6-5.4 2.8-18.6.3-3.6 1-8.3 1.6-10.5.6-2.2 1.1-4.7 1.1-5.5.2-2.9 6.7-17.1 10.1-22.3 5-7.3 10.2-12.6 18.3-18.3 3.1-2.2 14.7-7.1 18.5-7.8 1.3-.3 2.4-.5 2.4-.6 0-.4 8.4-1.4 20.3-2.3 1.9-.1 3.6.1 3.8.5.3.4 1.6.3 2.9-.2 1.4-.5 2.5-.6 2.5-.2 0 .4 1.8.7 4 .7s4-.2 4-.5c0-.7 9.9-.4 10.6.3.3.3 1.6.2 2.9-.3 1.3-.5 2.6-.6 2.9-.3.7.7 7.6 1 7.6.3s9.9-.4 10.6.3c.3.3 1.7.2 3-.3s2.4-.6 2.4-.2c0 .4 1.8.7 4 .7s4-.2 4-.5c0-.7 9.9-.4 10.6.3.3.3 1.6.2 2.9-.3 1.3-.5 2.6-.6 2.9-.3.7.7 7.6 1 7.6.3s9.9-.4 10.6.3c.3.3 1.7.2 3-.3s2.4-.6 2.4-.2c0 .4 1.8.7 4 .7s4-.2 4-.5c0-.8 6.4-.5 7.7.3.7.4 1.4.3 1.7-.2.4-.5 1.8-.6 3.4-.2 1.5.4 4.1.4 5.8.1 1.8-.4 3.8-.4 4.5.1.7.4 1.7.5 2.3.2 1.4-.9 6.7-.9 7.2-.1.3.4 1.5.3 2.7-.1 1.3-.5 3-.5 3.9 0 1 .6 1.9.6 2.2 0 .4-.5 1.8-.6 3.4-.2 1.5.4 4.1.4 5.8.1 1.8-.4 3.8-.4 4.5.1.7.4 1.8.5 2.3.2.9-.6 6.1-.8 6.9-.3.6.4 7.7.4 7.7 0 0-.7 9.9-.4 10.6.3.3.3 1.7.2 3-.3s2.4-.6 2.4-.2c0 .4 1.8.7 4 .7s4-.2 4-.5c0-.7 9.9-.4 10.6.3.3.3 1.6.2 2.9-.3 1.3-.5 2.6-.6 2.9-.3.7.7 7.6 1 7.6.3s9.9-.4 10.6.3c.3.3 1.7.2 3-.3s2.4-.6 2.4-.2c0 .4 1.8.7 4 .7s4-.2 4-.5c0-.7 9.9-.4 10.6.3.3.3 1.6.2 2.9-.3 1.3-.5 2.6-.6 2.9-.3.7.7 7.6 1 7.6.3s9.9-.4 10.6.3c.3.3 1.7.2 3-.3s2.4-.6 2.4-.2c0 .4 1.8.7 4 .7s4-.2 4-.5c0-.7 9.9-.4 10.6.3.3.3 1.6.2 2.9-.3 1.3-.5 2.6-.6 2.9-.3.7.7 7.6 1 7.6.3s9.9-.4 10.6.3c.3.3 1.7.2 3-.3s2.4-.6 2.4-.2c0 .4 1.8.7 4 .7s4-.2 4-.5c0-.7 9.9-.4 10.6.3.3.3 1.7.2 3-.3s2.6-.6 2.8-.1c.3.4 2.6.5 5.1.1 2.5-.4 4.8-.3 5.1.1.2.5 1.5.4 2.8-.1 1.3-.5 2.7-.6 3-.3.7.7 7.6 1 7.6.3s9.9-.4 10.6.3c.3.3 1.7.2 3-.3s2.4-.6 2.4-.2c0 .4 1.8.7 4 .7s4-.2 4-.5c0-.7 9.9-.4 10.6.3.4.4 1.4.2 2.4-.3s2-.6 2.4-.3c.3.4 2.8.8 5.4.9 6 .2 12.2 1.3 14.4 2.5.9.5 2.1.8 2.5.7 2.5-.6 19.2 8.2 25.4 13.4 13.7 11.3 20.9 26.9 22.4 47.8 1.1 14.4 1.6 17.4 4.2 23.9 1.6 3.8 3.9 8.4 5.3 10.1 9.6 12.6 19.4 18.1 42.2 23.7 3.9.9 32 1.1 37.8.2 15.4-2.3 29.3-7.5 35.7-13.5 1.5-1.4 3.2-2.9 3.8-3.2 1.9-1.2 9.1-10.6 10.4-13.7.8-1.7 2.2-5.6 3.2-8.9 2.1-6.8 1.8 15.5 2.3-230.3.2-93.6.6-170.6.9-171 .3-.5.3-1.4-.1-2-.4-.6-.5-14.3-.2-30.5.8-46.3.6-457.6-.3-464.8-.4-3.6-.9-8.8-1.2-11.5-.3-2.8-.7-6.1-.9-7.5-.2-1.4-.7-5-1-8-.4-3-.9-6.2-1.1-7-.2-.8-.7-3.5-1-6-.4-2.5-1.2-7.7-2-11.5-.8-3.9-1.6-8.4-1.9-10-.3-1.7-1-4.8-1.5-7s-1.2-5.1-1.4-6.5c-.3-1.4-1-4.5-1.7-7s-1.4-5.3-1.5-6.2c-.6-2.9-4.5-17.1-5.9-21.3-.8-2.2-2.4-7.4-3.6-11.5-1.2-4.1-2.5-8.4-3-9.5-.4-1.1-2.7-7.2-5-13.5s-4.6-11.9-5.1-12.4c-.5-.6-.9-1.6-.9-2.4 0-3.9-18.4-41.5-28.8-59-1.8-2.9-3.2-5.7-3.2-6.2 0-.6-.4-1-1-1-.5 0-1-.5-1-1 0-.6-.5-1.6-1-2.3-.6-.7-2.5-3.5-4.2-6.2-4.7-7.4-15.1-22-16-22.3-.4-.2-.8-.9-.8-1.6 0-.6-.9-1.8-2-2.6s-2-1.9-2-2.4-1.1-1.9-2.5-3.2c-1.4-1.3-2.5-2.6-2.5-2.9 0-.4-.6-1.2-1.2-1.9-.7-.7-3.5-4-6.3-7.2-11.5-13.5-38.9-39.5-48.9-46.3-1.2-.8-2.3-1.7-2.6-2-2.3-2.6-30.7-21.8-38-25.7-1.9-1.1-3.7-2.2-4-2.5-1.1-1.3-38.1-18.9-46-21.9-4.7-1.7-9.4-3.6-10.5-4.1-7.5-3.4-41.7-13.3-52.5-15.2-1.4-.3-4.3-1-6.5-1.5-2.2-.6-6-1.4-8.5-1.7-5-.8-7.5-1.3-7.5-1.5 0-.1-1.3-.4-3-.6-1.6-.2-6.1-.9-10-1.5-9.5-1.4-11.1-1.6-18-2.3-3.3-.4-8.5-.9-11.5-1.2-3-.3-8-.8-11-1-6.8-.6-71.7-1.4-72.2-.9zM663 144.3c1.4-.2 3.4-.3 4.5-.3s3.1.1 4.5.3c1.4.2 3.3-.1 4.3-.5.9-.5 1.7-.5 1.7 0 0 .4 1.5.7 3.3.5 3.9-.5 3.7-.5 12.2.1 16.8 1.2 24.7 2.1 39 4.1 17.9 2.6 44.9 10 63 17.3 8.5 3.4 23 10.4 23.6 11.4.3.5.8.8 1 .7.5-.3 16.6 8.8 17.9 10.1 1.4 1.4 7 5 7.9 5 .5 0 1.1.3 1.3.8.2.4 2.3 2.3 4.8 4.2 7.1 5.4 18 15 23.3 20.5 11.4 11.8 13.7 14.4 19.6 22 3.4 4.4 6.5 8.4 6.9 9 5.1 6.5 20.2 31.5 20.2 33.4 0 .5.6 1.6 1.3 2.3 1 1.1 5.7 10.8 9.7 20.3 3.8 8.8 11.1 29 12.7 35 .1.5.7 2.6 1.2 4.5 1.8 6.1 5.2 19.4 5.7 22 .2 1.4.7 3.1.9 3.8.3.7.9 4.1 1.5 7.5.5 3.4 1.2 7.3 1.4 8.7 1.5 8.5 2.9 19.3 3.1 24.1.1 3.1.4 6 .7 6.5.6 1.2 1 27 .4 26.4-.3-.3-.7-1.7-1-3-1.3-7-2.9-13.1-4.7-18-2.8-7.8-8.2-19.4-9.1-19.8-.5-.2-.8-.8-.8-1.3 0-1.6-8.4-13.7-14.1-20.3-2.9-3.3-8.2-8.6-11.7-11.6s-6.9-6-7.5-6.6c-.7-.5-2.7-1.9-4.4-2.9-1.8-1.1-3.3-2.3-3.3-2.7 0-.4-.5-.8-1.1-.8-.6 0-3.7-1.6-7-3.5s-7.1-3.8-8.4-4.1c-1.4-.3-2.5-1.1-2.5-1.7 0-.6-.3-.8-.6-.4-.3.3-2.6-.3-5.1-1.4-2.5-1-4.9-1.7-5.4-1.3-.5.3-.9.1-.9-.4 0-1-6.9-2.8-18.5-4.7-7.7-1.3-32.3-1.3-38.7 0-1.6.3-3.8.7-5 .9-3.7.6-14.6 3.6-17.6 4.8-3.2 1.3-2.9 1.2-6.4 2.2-1.6.5-2.8 1.3-2.8 1.9 0 .6-.3.7-.6.4-.6-.6-15.1 6.7-16.4 8.2-.3.3-3.1 2.3-6.2 4.5-7.1 4.7-19.9 17.1-25.9 25.1-5 6.7-10.9 16.1-10.9 17.4 0 .5-.4 1.1-.8 1.3-.7.3-5.8 11.7-8 18.3-1.5 4.2-4.1 14.4-4.6 18-.2 1.6-.5 3-.6 3-.5 0-1 8.7-1 18.5 0 14.3 0 14.5 1.1 20 .5 2.5 1.1 5.6 1.3 7 1.2 6 4.4 16.8 6 19.7.9 1.8 1.6 3.5 1.6 3.8-.1 1 7.2 15 8.6 16.6.8.8 1.4 2 1.4 2.6 0 .5.9 1.8 2 2.8 1.1 1 2 2.2 2 2.7 0 1.3 4.6 6.5 14.2 16 8.9 8.8 23.7 19.3 33.9 24 6.5 3 22.9 9 22.9 8.3 0-.2 1.1 0 2.4.5 1.3.5 4.4 1.1 6.8 1.4 2.3.3 5.4.8 6.8 1.1 3 .6 25.1.7 30 0 6.2-.7 10.4-1.5 12.5-2.2 1.1-.4 2.7-.7 3.5-.8 3.2-.3 24.9-8.2 26-9.4.3-.4 3.1-2 6.2-3.6 6-3.1 6.3-3.3 16.3-11.2 7.9-6.3 18.5-17.3 23.2-24.2 2.1-3.1 4-5.8 4.4-6.1 1.2-1.1 7.3-12.9 10.4-20.5 3.2-7.7 6.2-17.6 7.2-24 .3-1.7.7-3.2.9-3.4.7-.8-.1 535.3-.8 537.8-.4 1.3-1.5 4.8-2.3 7.8-1.6 5.5-7.4 17.3-9.7 19.8-6.9 7.3-12.4 12.6-14 13.1-1 .3-1.8 1-1.8 1.5s-.6.9-1.3.9c-.7 0-1.9.6-2.6 1.2-.6.7-1.5 1.3-1.9 1.4-.4 0-2.9 1-5.5 2.2-11.3 5.1-18.2 6.4-36.2 6.8-7.8.1-14.5.3-15 .4-.6.2-1.4.2-2 .1-.8-.1-20.6-.1-25 0-.5.1-9.3 0-19.5 0h-20c-2.1.1-28.4-.1-41-.2-5.8-.1-11.2-.1-12 0-2.4.1-17.2-.1-20-.3-1.4-.1-3.2.2-4.1.6-.9.4-1.9.5-2.2.2-.3-.3-5.6-.5-11.9-.5-12.1.2-25.7 0-29.8-.3-1.4-.1-3.2.2-4.1.6-.9.4-1.9.5-2.2.2-.4-.4-15.1-.6-25.2-.3-.5.1-9.3 0-19.5 0h-20c-2.1.1-28.4-.1-41-.2-5.8-.1-11.2-.1-12 0-2.4.1-17.2-.1-20-.3-1.4-.1-3.2.2-4.1.6-.9.4-1.9.5-2.2.2-.3-.3-5.6-.5-11.9-.5-12.1.2-25.7 0-29.8-.3-1.4-.1-3.2.2-4.1.6-.9.4-1.9.5-2.2.2-.3-.3-5.9-.5-12.4-.4-14.2.2-17.4.1-23.3-.5-7.3-.8-9.3-1.2-14-2.5-2.5-.7-4.6-1.2-4.8-1.1-.5.3-11-5.4-14.7-8-4.2-2.9-10.9-9.2-13.5-12.6-4.8-6.3-11.1-19.2-12.4-25.6-.2-.7-.6-1.9-.9-2.7-2.4-6.6-2.6-25.9-2.7-280.4 0-147.4.2-267.8.4-267.5.2.2.7 2.8 1 5.8.3 2.9 1.3 8.1 2.2 11.5.9 3.3 1.8 6.8 2 7.6.7 3.1 3.5 10.3 5.4 14.1 1.1 2.1 2 4.5 2 5.4 0 .8.4 1.5.8 1.5s1.7 1.9 2.9 4.2c3 6.2 13.8 20.5 20.1 26.6 10.7 10.4 30.1 24.2 34 24.2.7 0 1.2.4 1.2 1 0 .5.3.9.8.8.4 0 2.5.7 4.7 1.7 2.2.9 4.5 1.8 5 2 .6.1 1.7.5 2.5.8 4.7 1.9 13.8 4.1 24 5.8 9.2 1.5 34.4 1.3 39-.5.8-.3 2.9-.7 4.5-1 5.7-.9 16.4-4.2 23.3-7.2 8.9-3.9 11.4-5.2 20.7-11.3 10.5-6.9 23.9-19.4 31.8-29.8 2.6-3.4 4.7-6.5 4.7-6.9 0-.4.6-1.5 1.4-2.3 2.5-2.8 9.6-17.8 12.2-25.8 6.9-20.8 8.3-38.7 5-62.2-.3-1.8-.8-4-1-5-.3-.9-.8-3-1.1-4.8-.3-1.8-1-4.5-1.7-6-.6-1.5-1.2-3-1.2-3.3-.6-2.6-5.3-14.1-6.8-16.2-1-1.4-1.8-3.1-1.8-3.6s-1.6-3.3-3.5-6.1-3.5-5.5-3.5-6-.3-1.1-.7-1.3c-.5-.2-2.6-2.6-4.8-5.3-6-7.6-20.6-21.6-23.9-22.8-.9-.4-1.6-1.1-1.6-1.7 0-.5-.5-1-1.1-1-.6 0-2.9-1.3-5.2-2.8-9.3-6.4-32.2-15.5-41.6-16.7-2-.3-5.8-.9-8.4-1.4-5-.9-32.2-.7-36.9.3-5.2 1.1-8.3 1.7-10.3 2.1-2.1.3-10.6 3-14 4.4-1.1.5-3.3 1.4-5 2.2-1.6.7-3.2 1.3-3.5 1.4-.3 0-2.5 1.2-5 2.5s-4.7 2.5-5 2.5c-1.4.3-7 4.1-7 4.7 0 .5-.5.8-1.1.8-2.8 0-21.9 17.4-28.1 25.5-1.2 1.6-2.5 3.2-2.8 3.5-.3.3-2 2.7-3.8 5.5-1.7 2.7-3.5 5.4-3.9 6-.5.5-2.9 5.5-5.5 11.1-4 8.6-5.9 13.8-7.5 20.4-.2.8-.5 1.9-.7 2.5-.7 2.4-1.7 8.3-2 11.2-.1 1.8-.6 3.6-1 4-.9.8-.1-36 .8-40.7.3-1.4.7-4.5 1-7 .5-5.5 2.9-20 4.3-26.5.3-1.7.7-3.9.9-5 .3-2.3.7-4 2.8-11.7.8-3.1 1.7-6.7 2-8 2.8-14 15.3-46.4 25.4-66 5.7-11 15-26.9 18.4-31.3.5-.6 3.3-4.3 6.4-8.4 6.6-8.8 6.2-8.3 11.6-14.5 10.6-12.3 27.6-27.8 40.3-36.6 2.8-1.9 5.2-3.8 5.5-4.1.3-.3 3.9-2.5 8-5 4.1-2.4 7.7-4.6 8-4.9.6-.7 24.5-12.5 24.5-12.1 0 .1 2.5-.9 5.7-2.3 7.7-3.4 28.2-10 38-12.2 1-.2 2.8-.6 4.1-1 2.3-.5 5.7-1.2 9.2-1.8 1.1-.2 3.1-.7 4.5-1 8.3-1.9 28.7-4.1 45.2-5 2.1-.1 4-.5 4.4-.9.4-.3 1.4-.3 2.3.1.9.5 2.7.7 4.1.5z"/></svg>